<?xml version="1.0" encoding="utf-8"?><svg xmlns="http://www.w3.org/2000/svg" version="1.1" viewBox="0 0 140 40" x="0px" y="0px" width="140px" height="40px" preserveAspectRatio="xMinYMin none">
	<g>
		<path fill="#333" d="M31.277,18.832c-0.14,3.052-2.27,7.229-6.39,12.531c-4.259,5.536-7.863,8.306-10.811,8.306c-1.825,0-3.371-1.687-4.633-5.059c-0.843-3.092-1.686-6.185-2.529-9.275c-0.938-3.372-1.943-5.06-3.019-5.06c-0.234,0-1.054,0.494-2.458,1.477l-1.474-1.901c1.546-1.358,3.071-2.717,4.572-4.078c2.062-1.783,3.609-2.72,4.642-2.814c2.438-0.234,3.938,1.433,4.502,5.001c0.608,3.851,1.03,6.246,1.266,7.182c0.704,3.195,1.476,4.791,2.321,4.791c0.657,0,1.641-1.037,2.954-3.108c1.312-2.072,2.015-3.649,2.109-4.732c0.188-1.789-0.516-2.686-2.109-2.686c-0.75,0-1.522,0.173-2.318,0.514c1.54-5.044,4.481-7.495,8.823-7.355C29.945,12.661,31.462,14.75,31.277,18.832z"/>
		<path fill="#333" d="M50.613,28.713c-1.313,2.484-3.119,4.733-5.417,6.748c-3.143,2.718-6.285,4.076-9.425,4.076c-1.456,0-2.57-0.469-3.343-1.406c-0.773-0.938-1.137-2.153-1.09-3.653c0.045-1.548,0.526-3.938,1.441-7.173c0.914-3.232,1.373-4.967,1.373-5.201c0-1.218-0.423-1.828-1.266-1.828c-0.282,0-1.079,0.494-2.393,1.477l-1.618-1.901c1.501-1.358,3.001-2.717,4.502-4.078c2.017-1.783,3.518-2.72,4.504-2.814c1.546-0.14,2.684,0.314,3.411,1.367c0.726,1.052,0.996,2.417,0.81,4.098c-0.61,2.852-1.268,6.472-1.972,10.864c-0.046,2.01,0.681,3.014,2.182,3.014c0.656,0,1.827-0.693,3.518-2.083c1.406-1.156,2.555-2.243,3.447-3.262L50.613,28.713z M44.493,3.697c-0.047,1.168-0.633,2.288-1.76,3.361c-1.266,1.212-2.767,1.82-4.501,1.82c-2.672,0-3.963-1.166-3.869-3.499c0.045-1.213,0.76-2.381,2.144-3.501c1.384-1.119,2.919-1.68,4.609-1.68c0.984,0,1.805,0.387,2.462,1.155C44.234,2.125,44.539,2.906,44.493,3.697z"/>
		<path fill="#333" d="M94.543,28.713c-1.314,2.484-3.117,4.733-5.416,6.748c-3.145,2.718-6.285,4.076-9.426,4.076c-3.051,0-4.527-1.687-4.432-5.06c0.045-1.501,0.338-3.306,0.877-5.415c0.539-2.108,0.832-3.748,0.879-4.921c0.049-1.779-0.492-2.673-1.623-2.673c-1.223,0-2.682,1.456-4.375,4.362c-1.788,3.05-2.754,6.003-2.894,8.861c-0.095,2.02,0.103,3.568,0.592,4.645c-3.272,0.096-5.565-0.444-6.873-1.617c-1.171-1.032-1.708-2.742-1.614-5.135c0.045-1.501,0.276-3.001,0.69-4.502c0.414-1.5,0.644-2.837,0.69-4.011c0.095-1.734-0.54-2.604-1.9-2.604c-1.177,0-2.444,1.339-3.806,4.011c-1.361,2.673-2.113,5.465-2.253,8.371c-0.094,2.627,0.074,4.456,0.503,5.486c-3.219,0.096-5.505-0.582-6.857-2.035c-1.122-1.214-1.634-3.06-1.539-5.54c0.044-1.214,0.258-2.911,0.645-5.084c0.386-2.175,0.603-3.87,0.647-5.087c0.093-0.841-0.119-1.263-0.633-1.263c-0.281,0-1.079,0.475-2.393,1.424l-1.687-1.901c0.234-0.184,1.71-1.545,4.432-4.078c1.969-1.828,3.306-2.766,4.009-2.812c1.219-0.095,2.204,0.409,2.954,1.511s1.126,2.38,1.126,3.834c0,0.469-0.047,0.915-0.14,1.336c0.703-1.077,1.523-2.017,2.463-2.814c2.156-1.874,4.572-2.931,7.245-3.166c2.298-0.187,3.938,0.352,4.925,1.617c0.795,1.033,1.17,2.511,1.125,4.433c0.329-0.28,0.681-0.586,1.056-0.915c1.078-1.267,2.133-2.273,3.164-3.023c1.736-1.267,3.541-1.97,5.418-2.112c2.25-0.187,3.867,0.35,4.852,1.611c0.844,1.028,1.219,2.5,1.127,4.415c-0.047,1.309-0.363,3.213-0.949,5.712c-0.588,2.501-0.879,3.936-0.879,4.31c-0.049,0.982,0.047,1.659,0.279,2.034c0.236,0.373,0.797,0.559,1.689,0.559c0.656,0,1.826-0.693,3.518-2.083c1.406-1.156,2.555-2.243,3.447-3.262L94.543,28.713z"/>
		<path fill="#333" d="M120.922,28.642c-1.361,2.249-4.033,4.495-8.02,6.743c-4.971,2.856-10.012,4.284-15.125,4.284c-3.797,0-6.52-1.267-8.16-3.797c-1.172-1.735-1.734-3.797-1.688-6.189c0.045-3.797,1.736-7.407,5.064-10.832c3.658-3.75,7.973-5.627,12.945-5.627c4.596,0,7.033,1.873,7.314,5.615c0.188,2.384-1.125,4.842-3.938,7.368c-3.004,2.76-6.781,4.515-11.328,5.263c0.842,1.169,2.109,1.752,3.799,1.752c3.375,0,7.059-0.855,11.045-2.574c2.859-1.207,5.111-2.461,6.754-3.76L120.922,28.642z M104.953,21.297c0.045-1.259-0.469-1.89-1.547-1.89c-1.406,0-2.83,0.969-4.283,2.906c-1.451,1.936-2.201,3.789-2.248,5.562c-0.025,0-0.025,0.305,0,0.911c2.295-0.839,4.287-2.122,5.971-3.849C104.203,23.446,104.906,22.23,104.953,21.297z"/>
		<path fill="#333" d="M140.018,23.926c-0.189,4.31-1.781,8.031-4.783,11.169c-3.002,3.137-6.73,4.706-11.186,4.706c-3.705,0-6.52-1.195-8.441-3.585c-1.404-1.777-2.182-4.001-2.32-6.668c-0.236-4.029,1.217-7.729,4.361-11.101c3.377-3.746,7.619-5.618,12.732-5.618c3.281,0,5.766,1.102,7.457,3.301C139.432,18.145,140.158,20.744,140.018,23.926z M132.068,23.662c0.047-1.269-0.129-2.434-0.527-3.49c-0.4-1.057-0.975-1.587-1.725-1.587c-2.391,0-4.361,1.293-5.906,3.877c-1.316,2.115-2.02,4.371-2.111,6.766c-0.049,1.176,0.164,2.21,0.633,3.104c0.514,1.032,1.242,1.549,2.182,1.549c2.109,0,3.914-1.244,5.416-3.735C131.297,28.078,131.975,25.916,132.068,23.662z"/>
	</g>
</svg>