<svg xmlns="http://www.w3.org/2000/svg" viewBox="0 0 140 40" width="140" height="40" preserveAspectRatio="xMinYMin none"><g fill="#333"><path d="M31.277 18.832c-.14 3.052-2.27 7.23-6.39 12.53-4.26 5.537-7.863 8.307-10.81 8.307-1.826 0-3.372-1.688-4.634-5.06-.843-3.092-1.686-6.185-2.53-9.275-.937-3.372-1.942-5.06-3.018-5.06-.234 0-1.054.494-2.458 1.477l-1.474-1.9c1.546-1.36 3.07-2.718 4.572-4.08 2.062-1.782 3.61-2.72 4.642-2.813 2.438-.235 3.938 1.432 4.502 5 .607 3.85 1.03 6.246 1.265 7.182.704 3.195 1.476 4.79 2.32 4.79.658 0 1.642-1.036 2.955-3.107 1.312-2.072 2.015-3.65 2.11-4.732.187-1.79-.517-2.686-2.11-2.686-.75 0-1.522.173-2.318.514 1.54-5.043 4.48-7.494 8.823-7.354 3.22.095 4.737 2.184 4.552 6.266zM50.613 28.713c-1.313 2.484-3.12 4.733-5.417 6.748-3.143 2.72-6.285 4.077-9.425 4.077-1.455 0-2.57-.47-3.342-1.406-.773-.937-1.137-2.152-1.09-3.652.045-1.548.526-3.938 1.44-7.173.915-3.232 1.374-4.967 1.374-5.2 0-1.22-.423-1.83-1.266-1.83-.282 0-1.08.495-2.393 1.478l-1.618-1.9 4.502-4.08c2.017-1.782 3.518-2.72 4.504-2.813 1.547-.14 2.685.314 3.412 1.367.726 1.052.996 2.417.81 4.098-.61 2.852-1.268 6.472-1.972 10.864-.046 2.01.68 3.013 2.182 3.013.656 0 1.827-.693 3.518-2.083 1.406-1.156 2.555-2.243 3.447-3.262l1.336 1.755zm-6.12-25.016c-.047 1.168-.633 2.288-1.76 3.36-1.266 1.213-2.767 1.82-4.5 1.82-2.673 0-3.964-1.165-3.87-3.498.045-1.214.76-2.382 2.144-3.502 1.384-1.12 2.92-1.68 4.61-1.68.983 0 1.804.387 2.46 1.155.657.772.962 1.553.916 2.344zM94.543 28.713c-1.314 2.484-3.117 4.733-5.416 6.748-3.145 2.72-6.285 4.077-9.426 4.077-3.05 0-4.526-1.687-4.43-5.06.044-1.5.337-3.306.876-5.415.54-2.108.832-3.748.88-4.92.048-1.78-.493-2.674-1.624-2.674-1.223 0-2.682 1.456-4.375 4.362-1.788 3.05-2.754 6.003-2.894 8.86-.095 2.02.103 3.57.592 4.646-3.272.096-5.565-.444-6.873-1.617-1.17-1.033-1.708-2.743-1.614-5.136.045-1.5.276-3 .69-4.502.414-1.5.644-2.837.69-4.01.095-1.735-.54-2.605-1.9-2.605-1.177 0-2.444 1.34-3.806 4.01-1.36 2.674-2.113 5.466-2.253 8.372-.095 2.626.073 4.455.502 5.485-3.22.096-5.505-.582-6.857-2.035-1.122-1.214-1.634-3.06-1.54-5.54.045-1.214.26-2.91.646-5.084.387-2.175.604-3.87.648-5.087.093-.842-.12-1.264-.633-1.264-.28 0-1.08.475-2.393 1.424l-1.687-1.9c.234-.185 1.71-1.546 4.432-4.08 1.97-1.827 3.306-2.765 4.01-2.81 1.218-.096 2.203.408 2.953 1.51s1.126 2.38 1.126 3.834c0 .47-.047.915-.14 1.336.703-1.077 1.523-2.017 2.463-2.814 2.155-1.874 4.57-2.93 7.244-3.166 2.298-.187 3.938.352 4.925 1.617.794 1.033 1.17 2.51 1.124 4.433.33-.28.68-.586 1.056-.915 1.078-1.267 2.133-2.273 3.164-3.023 1.736-1.267 3.54-1.97 5.418-2.112 2.25-.187 3.867.35 4.852 1.61.844 1.03 1.22 2.5 1.127 4.416-.046 1.31-.362 3.213-.948 5.712-.588 2.5-.88 3.936-.88 4.31-.048.982.048 1.66.28 2.034.236.373.797.56 1.69.56.655 0 1.825-.694 3.517-2.084 1.405-1.156 2.554-2.243 3.446-3.262l1.337 1.757zM120.922 28.642c-1.36 2.25-4.033 4.495-8.02 6.743-4.97 2.856-10.012 4.284-15.125 4.284-3.797 0-6.52-1.268-8.16-3.798-1.172-1.735-1.734-3.797-1.688-6.19.044-3.796 1.735-7.406 5.063-10.83 3.658-3.75 7.973-5.628 12.945-5.628 4.596 0 7.033 1.873 7.314 5.615.188 2.383-1.125 4.84-3.938 7.367-3.004 2.76-6.78 4.515-11.328 5.263.842 1.17 2.11 1.752 3.8 1.752 3.374 0 7.058-.855 11.044-2.574 2.86-1.207 5.11-2.46 6.754-3.76l1.338 1.754zm-15.97-7.345c.046-1.26-.468-1.89-1.546-1.89-1.406 0-2.83.97-4.283 2.906-1.45 1.936-2.2 3.79-2.248 5.562-.025 0-.025.305 0 .91 2.295-.838 4.287-2.12 5.97-3.848 1.358-1.49 2.06-2.707 2.108-3.64zM140.018 23.926c-.19 4.31-1.78 8.03-4.783 11.17-3.002 3.136-6.73 4.705-11.186 4.705-3.706 0-6.52-1.194-8.442-3.584-1.404-1.777-2.182-4-2.32-6.668-.236-4.03 1.217-7.73 4.36-11.1 3.378-3.747 7.62-5.62 12.733-5.62 3.282 0 5.767 1.103 7.458 3.302 1.594 2.015 2.32 4.614 2.18 7.796zm-7.95-.264c.047-1.27-.13-2.434-.527-3.49-.4-1.057-.974-1.587-1.724-1.587-2.39 0-4.36 1.293-5.906 3.877-1.316 2.115-2.02 4.37-2.11 6.766-.05 1.176.163 2.21.632 3.104.514 1.032 1.242 1.55 2.182 1.55 2.11 0 3.914-1.245 5.416-3.736 1.267-2.068 1.945-4.23 2.038-6.484z"/></g></svg>